<?xml version="1.0" standalone="no"?>
<!DOCTYPE svg PUBLIC "-//W3C//DTD SVG 20010904//EN"
 "http://www.w3.org/TR/2001/REC-SVG-20010904/DTD/svg10.dtd">
<svg version="1.0" xmlns="http://www.w3.org/2000/svg"
 width="30.000000pt" height="30.000000pt" viewBox="0 0 512.000000 512.000000"
 preserveAspectRatio="xMidYMid meet">
<metadata>
Created by potrace 1.16, written by Peter Selinger 2001-2019
</metadata>
<g transform="translate(0.000000,512.000000) scale(0.100000,-0.100000)"
fill="#000000" stroke="none">
<path d="M805 4775 l-25 -24 0 -744 c0 -734 0 -743 20 -765 l21 -22 554 0 554
0 20 26 c21 26 21 33 21 755 0 512 -3 735 -11 752 -6 14 -22 30 -36 36 -16 8
-188 11 -559 11 l-535 0 -24 -25z"/>
<path d="M2232 4788 c-36 -18 -44 -68 -40 -265 3 -161 5 -183 22 -202 19 -21
20 -21 715 -21 614 0 699 2 719 16 22 15 22 19 22 227 0 117 -4 217 -8 223
-22 33 -49 34 -729 33 -467 0 -685 -4 -701 -11z"/>
</g>
</svg>
