<?xml version="1.0" standalone="no"?>
<!DOCTYPE svg PUBLIC "-//W3C//DTD SVG 20010904//EN"
 "http://www.w3.org/TR/2001/REC-SVG-20010904/DTD/svg10.dtd">
<svg version="1.0" xmlns="http://www.w3.org/2000/svg"
 width="30.000000px" height="30.000000px" viewBox="0 0 512.000000 512.000000"
 preserveAspectRatio="xMidYMid meet">
<metadata>
Created by potrace 1.16, written by Peter Selinger 2001-2019
</metadata>
<g transform="translate(0.000000,512.000000) scale(0.100000,-0.100000)"
fill="#de7ad7" stroke="none">
<path d="M0 2560 l0 -2560 353 0 c348 0 352 0 323 19 -15 10 -37 32 -47 47
-18 28 -19 90 -19 2193 0 2138 0 2164 20 2196 11 17 34 39 52 49 18 9 698 150
1523 315 l1490 299 -1847 1 -1848 1 0 -2560z"/>
<path d="M3844 5101 c64 -43 66 -50 66 -328 l0 -253 253 0 c278 0 285 -2 328
-66 18 -28 19 -90 19 -2194 0 -2104 -1 -2166 -19 -2194 -10 -15 -32 -37 -47
-47 -29 -19 -25 -19 324 -19 l352 0 0 2560 0 2560 -652 0 c-643 0 -653 0 -624
-19z"/>
<path d="M2955 4650 l-630 -128 643 -1 642 -1 0 130 c0 98 -3 130 -12 129 -7
-1 -296 -59 -643 -129z"/>
<path d="M910 2260 l0 -1960 1650 0 1650 0 0 1960 0 1960 -1650 0 -1650 0 0
-1960z m2934 1641 c15 -10 37 -32 47 -47 18 -28 19 -59 19 -694 0 -635 -1
-666 -19 -694 -10 -15 -32 -37 -47 -47 -28 -18 -71 -19 -1284 -19 -1213 0
-1256 1 -1284 19 -15 10 -37 32 -47 47 -18 28 -19 59 -19 694 0 635 1 666 19
694 10 15 32 37 47 47 28 18 71 19 1284 19 1213 0 1256 -1 1284 -19z m-1200
-1820 c46 -31 66 -69 66 -131 0 -62 -20 -100 -66 -131 -28 -18 -59 -19 -684
-19 -625 0 -656 1 -684 19 -46 31 -66 69 -66 131 0 62 20 100 66 131 28 18 59
19 684 19 625 0 656 -1 684 -19z m1200 0 c15 -10 37 -32 47 -47 18 -28 19 -59
19 -684 0 -625 -1 -656 -19 -684 -10 -15 -32 -37 -47 -47 -27 -18 -53 -19
-384 -19 -331 0 -357 1 -384 19 -15 10 -37 32 -47 47 -18 28 -19 59 -19 684 0
625 1 656 19 684 10 15 32 37 47 47 27 18 53 19 384 19 331 0 357 -1 384 -19z
m-1200 -600 c46 -31 66 -69 66 -131 0 -62 -20 -100 -66 -131 -28 -18 -59 -19
-684 -19 -625 0 -656 1 -684 19 -46 31 -66 69 -66 131 0 62 20 100 66 131 28
18 59 19 684 19 625 0 656 -1 684 -19z m0 -600 c46 -31 66 -69 66 -131 0 -62
-20 -100 -66 -131 -28 -18 -59 -19 -684 -19 -625 0 -656 1 -684 19 -46 31 -66
69 -66 131 0 62 20 100 66 131 28 18 59 19 684 19 625 0 656 -1 684 -19z"/>
<path d="M1510 3160 l0 -460 1050 0 1050 0 0 460 0 460 -1050 0 -1050 0 0
-460z"/>
<path d="M3310 1350 l0 -450 150 0 150 0 0 450 0 450 -150 0 -150 0 0 -450z"/>
</g>
</svg>
