<?xml version="1.0" standalone="no"?>
<!DOCTYPE svg PUBLIC "-//W3C//DTD SVG 20010904//EN"
 "http://www.w3.org/TR/2001/REC-SVG-20010904/DTD/svg10.dtd">
<svg version="1.0" xmlns="http://www.w3.org/2000/svg"
  width="30px" height="30px" viewBox="0 0 512.000000 512.000000"
 preserveAspectRatio="xMidYMid meet">
<metadata>
Created by potrace 1.16, written by Peter Selinger 2001-2019
</metadata>
<g transform="translate(0.000000,512.000000) scale(0.100000,-0.100000)"
fill="#000000" stroke="none">
<path d="M675 4764 c-38 -9 -108 -34 -155 -56 -113 -54 -237 -177 -293 -288
-77 -155 -72 -67 -72 -1370 0 -1303 -5 -1215 72 -1370 56 -111 180 -234 293
-288 79 -38 205 -72 264 -72 l26 0 2 -485 3 -484 695 484 695 484 1076 1 c727
0 1095 4 1135 11 236 43 427 208 512 441 l27 73 0 1205 0 1205 -27 73 c-73
202 -216 344 -417 416 l-86 31 -1840 2 c-1595 1 -1849 0 -1910 -13z m3757
-302 c81 -33 160 -108 200 -190 l33 -67 3 -1120 c2 -833 0 -1134 -9 -1175 -31
-148 -148 -262 -298 -290 -34 -6 -451 -10 -1153 -10 l-1099 0 -502 -350 -502
-349 -3 349 -2 350 -143 0 c-228 0 -309 24 -402 117 -58 57 -93 130 -106 216
-11 81 -11 2133 0 2214 24 160 131 280 286 319 39 10 440 12 1845 11 l1795 -2
57 -23z"/>
<path d="M1440 3645 l0 -145 1120 0 1120 0 0 145 0 145 -1120 0 -1120 0 0
-145z"/>
<path d="M1440 3045 l0 -145 1120 0 1120 0 0 145 0 145 -1120 0 -1120 0 0
-145z"/>
<path d="M1440 2445 l0 -145 1120 0 1120 0 0 145 0 145 -1120 0 -1120 0 0
-145z"/>
</g>
</svg>
