<?xml version="1.0" standalone="no"?>
<!DOCTYPE svg PUBLIC "-//W3C//DTD SVG 20010904//EN"
 "http://www.w3.org/TR/2001/REC-SVG-20010904/DTD/svg10.dtd">
<svg version="1.0" xmlns="http://www.w3.org/2000/svg"
 width="30.000000px" height="30.000000px" viewBox="0 0 512.000000 512.000000"
 preserveAspectRatio="xMidYMid meet">
<metadata>
Created by potrace 1.16, written by Peter Selinger 2001-2019
</metadata>
<g transform="translate(0.000000,512.000000) scale(0.100000,-0.100000)"
fill="#bf6715" stroke="none">
<path d="M492 5105 c-30 -7 -92 -32 -140 -55 -125 -62 -224 -163 -285 -291
-25 -52 -50 -118 -56 -147 -15 -75 -15 -4029 0 -4104 6 -29 31 -95 56 -147 37
-77 59 -108 122 -172 64 -63 95 -85 172 -122 52 -25 118 -50 147 -56 75 -15
4029 -15 4104 0 29 6 95 31 147 56 133 64 230 161 294 294 25 52 50 118 56
147 15 75 15 4029 0 4104 -6 29 -31 95 -56 147 -64 133 -161 230 -294 294 -52
25 -118 50 -147 56 -83 17 -4049 14 -4120 -4z m4095 -316 c80 -30 172 -122
202 -202 l21 -58 -2 -1091 -3 -1091 -356 439 c-196 242 -372 453 -391 470 -87
76 -211 112 -325 94 -145 -23 -110 7 -893 -776 l-715 -714 -25 24 c-73 70
-522 431 -561 451 -122 62 -291 52 -403 -23 -22 -15 -215 -177 -430 -359
l-391 -333 -3 1455 -2 1454 22 58 c29 80 112 165 193 198 l60 25 1972 0 1972
0 58 -21z m-257 -2354 l479 -590 1 -627 c0 -616 0 -628 -21 -685 -30 -80 -122
-172 -202 -202 l-58 -21 -1969 0 -1969 0 -58 21 c-80 30 -172 122 -202 202
-20 54 -21 76 -21 365 l1 307 494 420 c272 231 508 426 524 432 21 9 38 10 56
3 14 -5 92 -65 173 -133 535 -448 537 -450 625 -427 38 10 121 91 802 775 538
542 767 765 785 768 14 2 37 -2 53 -7 19 -8 181 -200 507 -601z"/>
<path d="M1435 4474 c-33 -8 -103 -35 -155 -61 -79 -39 -109 -61 -180 -133
-98 -98 -140 -165 -183 -288 -28 -80 -30 -99 -31 -222 -1 -115 3 -146 22 -210
79 -251 260 -431 507 -502 62 -17 106 -23 195 -23 141 0 196 13 329 77 90 43
116 62 185 132 144 144 205 285 213 486 7 177 -32 317 -127 455 -96 140 -259
249 -432 290 -80 19 -263 18 -343 -1z m348 -331 c115 -54 201 -156 233 -278
76 -282 -176 -560 -466 -514 -89 13 -165 52 -231 118 -219 220 -139 576 155
688 51 19 76 23 151 20 77 -2 100 -7 158 -34z"/>
</g>
</svg>
