<?xml version="1.0" standalone="no"?>
<!DOCTYPE svg PUBLIC "-//W3C//DTD SVG 20010904//EN"
 "http://www.w3.org/TR/2001/REC-SVG-20010904/DTD/svg10.dtd">
<svg version="1.0" xmlns="http://www.w3.org/2000/svg"
 width="30px" height="30px" viewBox="0 0 512.000000 512.000000"
 preserveAspectRatio="xMidYMid meet">
<metadata>
Created by potrace 1.16, written by Peter Selinger 2001-2019
</metadata>
<g transform="translate(0.000000,512.000000) scale(0.100000,-0.100000)"
fill="#000000" stroke="none">
<path d="M2716 5101 c-45 -30 -68 -74 -68 -131 1 -45 11 -68 88 -203 47 -84
96 -163 108 -175 64 -71 168 -70 236 2 19 21 25 40 28 89 l3 62 -96 165 c-111
190 -131 210 -216 210 -36 0 -63 -6 -83 -19z"/>
<path d="M4015 5110 c-35 -14 -70 -61 -158 -216 -77 -134 -87 -158 -87 -200 0
-88 63 -154 147 -154 90 0 111 20 228 226 78 138 90 165 89 204 -1 92 -61 151
-150 149 -27 0 -58 -4 -69 -9z"/>
<path d="M3224 4330 c-100 -21 -196 -96 -235 -185 -10 -23 -25 -89 -34 -146
-32 -216 -87 -361 -200 -533 -162 -245 -426 -467 -800 -673 -108 -59 -271
-143 -279 -143 -2 0 -6 29 -8 65 -5 74 -25 110 -79 138 -32 16 -82 17 -726 15
-678 -3 -692 -3 -719 -23 -15 -11 -35 -36 -45 -55 -18 -33 -19 -89 -19 -1355
0 -1237 1 -1322 18 -1355 9 -19 32 -45 51 -57 l34 -23 541 0 c328 0 558 4 585
11 105 24 242 121 286 203 23 42 28 43 92 15 151 -65 409 -139 598 -173 267
-47 301 -49 1162 -53 559 -3 840 -1 879 6 172 32 319 165 368 334 25 85 21
203 -9 294 l-26 76 52 46 c68 59 122 144 144 225 25 92 18 229 -17 314 -14 34
-22 62 -18 62 17 0 109 92 138 137 55 87 75 164 70 278 -5 115 -28 186 -83
258 -34 44 -34 45 -14 63 35 32 90 156 101 232 37 233 -109 460 -336 526 -46
14 -126 16 -514 16 l-461 0 49 103 c105 225 143 396 144 662 1 173 0 183 -27
260 -62 175 -167 296 -322 373 -105 52 -256 80 -341 62z m202 -343 c65 -34
117 -89 151 -162 27 -57 28 -67 27 -195 -1 -249 -55 -433 -197 -672 l-51 -88
-141 0 c-122 0 -144 -3 -173 -20 -53 -32 -74 -75 -69 -143 3 -51 8 -63 39 -93
20 -21 51 -39 74 -44 21 -5 371 -10 777 -10 604 0 744 -3 771 -14 63 -26 105
-110 91 -182 -9 -49 -67 -108 -120 -123 -23 -6 -121 -11 -226 -11 -177 0 -188
-1 -220 -23 -68 -45 -90 -143 -46 -207 49 -73 55 -74 292 -80 237 -6 243 -7
293 -81 20 -28 23 -44 20 -90 -5 -68 -32 -109 -91 -138 -39 -19 -61 -21 -233
-21 -207 0 -237 -7 -277 -62 -31 -42 -34 -118 -7 -165 36 -66 66 -77 216 -83
125 -5 132 -6 168 -34 49 -37 70 -86 63 -149 -5 -55 -29 -93 -78 -122 -28 -16
-58 -21 -166 -25 -112 -4 -136 -8 -159 -26 -51 -38 -68 -70 -68 -129 0 -87 49
-139 147 -155 115 -18 162 -66 162 -165 0 -74 -19 -107 -81 -142 l-39 -23
-740 0 c-881 0 -1013 8 -1340 84 -120 27 -334 98 -451 148 l-74 32 0 861 0
861 193 97 c447 224 686 385 917 617 275 275 432 578 479 924 6 43 13 81 16
86 8 13 101 -7 151 -33z m-2066 -2488 c0 -1181 5 -1102 -68 -1157 -33 -25 -44
-27 -149 -30 l-113 -4 0 262 c0 251 -1 264 -22 301 -29 51 -93 84 -150 76 -45
-6 -81 -28 -112 -71 -20 -26 -21 -43 -24 -297 l-3 -269 -164 0 -165 0 0 1125
0 1125 485 0 485 0 0 -1061z"/>
<path d="M2076 3991 c-95 -64 -93 -208 4 -266 32 -18 52 -20 240 -20 196 0
207 1 241 23 87 53 93 178 14 252 -26 25 -27 25 -248 28 -206 2 -224 1 -251
-17z"/>
<path d="M4322 3990 c-97 -59 -96 -192 1 -264 27 -20 41 -21 235 -21 229 0
249 4 292 65 48 68 27 178 -42 220 -30 18 -50 20 -243 20 -192 0 -213 -2 -243
-20z"/>
</g>
</svg>
