<?xml version="1.0" standalone="no"?>
<!DOCTYPE svg PUBLIC "-//W3C//DTD SVG 20010904//EN"
 "http://www.w3.org/TR/2001/REC-SVG-20010904/DTD/svg10.dtd">
<svg version="1.0" xmlns="http://www.w3.org/2000/svg"
 width="30.000000px" height="30.000000px" viewBox="0 0 512.000000 512.000000"
 preserveAspectRatio="xMidYMid meet">
<metadata>
Created by potrace 1.16, written by Peter Selinger 2001-2019
</metadata>
<g transform="translate(0.000000,512.000000) scale(0.100000,-0.100000)"
fill="#6dbf15" stroke="none">
<path d="M3825 5113 c-63 -15 -3136 -907 -3170 -921 -112 -44 -222 -142 -279
-251 -55 -106 -69 -167 -64 -290 4 -98 11 -127 89 -386 l84 -280 5 -1260 c5
-1140 8 -1265 23 -1315 60 -197 209 -345 397 -395 46 -12 169 -15 723 -15
l669 0 29 29 c38 39 40 97 5 138 l-24 28 -659 5 c-656 5 -658 5 -715 28 -100
40 -170 110 -210 210 l-23 57 -3 708 -3 707 1956 0 1956 0 -3 -718 -3 -717
-27 -57 c-54 -115 -154 -190 -279 -208 -35 -5 -339 -10 -675 -10 l-611 0 -26
-25 c-27 -28 -37 -61 -29 -100 2 -13 16 -36 29 -50 l26 -25 672 0 c736 0 713
-2 837 61 69 35 165 122 209 190 17 28 44 80 58 117 l26 67 3 1277 2 1277 -29
33 -29 33 -1698 5 -1699 5 1605 464 c883 255 1618 471 1635 480 17 10 35 32
43 54 14 35 11 47 -68 324 -98 342 -122 411 -165 479 -74 116 -196 205 -329
240 -48 13 -217 17 -261 7z m273 -238 c71 -38 130 -98 159 -161 35 -78 166
-536 154 -543 -6 -4 -93 -31 -195 -60 l-184 -54 -356 343 c-196 189 -354 345
-352 347 1 2 126 39 277 83 261 77 278 80 359 77 71 -2 94 -8 138 -32z m-631
-569 c178 -170 320 -313 315 -317 -4 -4 -118 -39 -255 -78 l-247 -72 -355 342
c-196 188 -353 345 -350 348 3 3 117 37 253 77 l247 71 35 -30 c19 -16 179
-170 357 -341z m-784 -188 c196 -188 355 -343 353 -346 -3 -2 -118 -37 -257
-77 l-252 -74 -353 341 c-195 187 -354 343 -354 347 0 4 472 146 501 150 3 1
166 -153 362 -341z m-748 -222 c195 -187 353 -341 352 -342 -1 -1 -117 -36
-257 -76 l-256 -75 -349 337 c-191 184 -350 340 -352 346 -4 11 469 154 495
151 7 -1 173 -155 367 -341z m-750 -221 l355 -339 -78 -23 c-564 -164 -783
-225 -788 -220 -4 4 -40 122 -81 264 -70 241 -75 263 -71 334 6 100 39 170
114 238 53 49 141 93 177 88 10 -1 177 -155 372 -342z m361 -867 c-14 -24
-108 -187 -210 -363 l-185 -320 -225 -3 -226 -2 0 365 0 365 435 0 436 0 -25
-42z m802 34 c-1 -5 -95 -169 -208 -365 l-205 -356 -268 -1 c-168 0 -267 4
-265 10 2 5 95 169 208 364 l205 356 268 0 c148 0 267 -4 265 -8z m782 1 c0
-3 -93 -167 -207 -365 l-207 -358 -269 0 c-147 0 -266 3 -264 8 23 41 393 683
403 700 14 22 15 22 279 22 146 0 265 -3 265 -7z m781 -10 c-5 -10 -99 -173
-209 -363 l-200 -345 -271 -3 -270 -2 105 182 c59 101 153 265 211 366 l105
182 270 0 c253 0 268 -1 259 -17z m699 -348 l0 -365 -431 0 c-244 0 -429 4
-427 9 2 5 95 169 208 365 l205 356 223 0 222 0 0 -365z"/>
<path d="M2299 1651 l-29 -29 0 -552 0 -552 29 -29 c34 -34 83 -39 133 -13 30
16 841 483 878 507 47 29 54 112 13 156 -16 16 -229 144 -474 285 -492 283
-493 283 -550 227z m504 -446 c124 -71 227 -132 227 -135 0 -3 -109 -68 -242
-145 -134 -76 -258 -148 -275 -158 l-33 -19 0 321 0 321 48 -27 c26 -16 150
-86 275 -158z"/>
<path d="M2587 175 c-67 -68 -24 -175 70 -175 36 0 50 6 74 29 65 66 20 171
-74 171 -34 0 -50 -6 -70 -25z"/>
</g>
</svg>
